<svg xmlns="http://www.w3.org/2000/svg" style="display: none    ;">

 <symbol viewBox="0 0 1024 1024" id="clear-sky"><path d="M691.2 484c0 100.3-81.3 181.6-181.6 181.6S328.1 584.2 328.1 484c0-100.3 81.3-181.6 181.6-181.6S691.2 383.7 691.2 484z" fill="#FBBA22"/><path d="M509.7 247.9c10 0 18.2-8 18.2-17.9v-73.1c0-9.9-8.1-17.9-18.2-17.9-10 0-18.2 8-18.2 17.9V230c0 9.9 8.1 17.9 18.2 17.9zM509.7 720c-10 0-18.2 8-18.2 17.9v73c0 9.9 8.1 18 18.2 18 10 0 18.2-8 18.2-18v-73c-0.1-9.9-8.2-17.9-18.2-17.9zM836.7 465.8h-73.1c-9.9 0-17.9 8.1-17.9 18.2s8 18.2 17.9 18.2h73.1c9.9 0 17.9-8.1 17.9-18.2s-8-18.2-17.9-18.2zM273.6 484c0-10-8-18.2-17.9-18.2h-73c-9.9 0-18 8.1-18 18.2s8 18.2 18 18.2h73c9.9-0.1 17.9-8.2 17.9-18.2zM702.1 650.7c-7-7-18.4-6.9-25.5 0.1-7.1 7.1-7.2 18.5-0.2 25.5l51.7 51.6c7 7 18.4 6.9 25.5-0.2 7.1-7.1 7.2-18.5 0.2-25.5l-51.7-51.5zM317.2 317.2c7 7 18.4 6.9 25.5-0.2 7.1-7.1 7.2-18.5 0.2-25.5l-51.7-51.6c-7-7-18.4-6.9-25.5 0.2-7.1 7.1-7.2 18.5-0.1 25.5l51.6 51.6zM317.2 650.7l-51.7 51.7c-7 7-6.9 18.4 0.2 25.5 7.1 7.1 18.5 7.2 25.5 0.2l51.7-51.6c7-7 6.9-18.4-0.2-25.5-7-7.2-18.4-7.3-25.5-0.3zM702.1 317.2l51.7-51.6c7-7 6.9-18.4-0.1-25.5-7.1-7.1-18.5-7.2-25.5-0.2l-51.6 51.6c-7 7-6.9 18.4 0.2 25.5 6.9 7.2 18.3 7.2 25.3 0.2zM509.7 284.2c-110.1 0-199.7 89.6-199.7 199.7s89.6 199.7 199.7 199.7S709.4 594 709.4 483.9s-89.6-199.7-199.7-199.7z m0 363.2c-90.1 0-163.4-73.3-163.4-163.4 0-90.1 73.3-163.4 163.4-163.4 90.1 0 163.4 73.3 163.4 163.4 0 90.1-73.3 163.4-163.4 163.4z" fill="#ffffff"/>
 </symbol>



<symbol viewBox="0 0 24 24" id="cloudy"><path d="M19.95 8.719a5.48 5.48 0 0 0-8.723-2.429 3.41 3.41 0 0 0-5.466.166 2.722 2.722 0 0 0-3.337 3.155 3.05 3.05 0 0 0-.414 4.848c0 .035-.01.068-.01.104A3.438 3.438 0 0 0 5.438 18h12.75a4.807 4.807 0 0 0 1.761-9.281zM18.187 17H5.438a2.438 2.438 0 0 1-.066-4.874h.716l.268-.58a2.443 2.443 0 0 1 2.207-1.421 2.41 2.41 0 0 1 .593.085l.986.248.232-.99a4.494 4.494 0 0 1 8.63-.425l.149.436.43.17A3.807 3.807 0 0 1 18.187 17zM3.525 10.094l-.118-.659a1.775 1.775 0 0 1-.033-.31A1.725 1.725 0 0 1 5.53 7.429l.656.156.39-.55a2.42 2.42 0 0 1 3.95-.03A5.478 5.478 0 0 0 9.4 9.24a3.369 3.369 0 0 0-3.952 1.886l-.011-.001a3.437 3.437 0 0 0-3.16 2.086 2.038 2.038 0 0 1 .684-2.757z"/><path fill="none" d="M0 0h24v24H0z"/></svg>
</symbol>

</svg>